<?xml version="1.0" standalone="no"?>
<!DOCTYPE svg PUBLIC "-//W3C//DTD SVG 20010904//EN"
 "http://www.w3.org/TR/2001/REC-SVG-20010904/DTD/svg10.dtd">
<svg version="1.0" xmlns="http://www.w3.org/2000/svg"
 width="300.000000pt" height="300.000000pt" viewBox="0 0 300.000000 300.000000"
 preserveAspectRatio="xMidYMid meet">
<metadata>
Created by potrace 1.10, written by Peter Selinger 2001-2011
</metadata>
<g transform="translate(0.000000,300.000000) scale(0.100000,-0.100000)"
fill="#000000" stroke="none">
<path d="M1318 2980 c-290 -61 -523 -232 -666 -490 -76 -136 -103 -243 -108
-435 -5 -148 -4 -167 20 -260 33 -128 73 -211 184 -382 191 -296 244 -385 236
-392 -5 -4 -58 -18 -119 -30 -337 -69 -590 -205 -656 -353 -114 -257 166 -486
716 -587 199 -36 324 -46 575 -45 714 1 1238 186 1310 464 25 93 -14 194 -106
279 -112 103 -320 191 -569 242 -60 12 -114 26 -119 30 -8 7 44 94 246 407
101 155 141 242 174 367 24 93 25 112 20 260 -4 161 -12 205 -56 324 -159 427
-640 694 -1082 601z m355 -176 c153 -33 332 -144 434 -269 205 -250 241 -607
90 -880 -19 -33 -133 -215 -255 -405 -121 -190 -269 -420 -327 -512 -59 -93
-110 -168 -115 -168 -4 0 -101 147 -216 327 -115 181 -266 418 -337 528 -71
110 -142 225 -157 255 -135 268 -93 622 101 854 105 126 268 229 420 266 95
24 265 26 362 4z m-404 -2209 c89 -140 172 -261 184 -270 27 -19 67 -19 94 0
12 9 95 131 184 271 l163 256 62 -6 c252 -26 542 -133 638 -236 64 -69 64
-103 -3 -170 -112 -112 -381 -202 -731 -245 -166 -20 -554 -20 -720 0 -350 43
-619 133 -731 245 -40 41 -49 55 -49 85 0 106 231 234 530 294 58 11 114 22
125 25 11 2 36 4 56 5 l37 1 161 -255z"/>
<path d="M1380 2451 c-153 -50 -269 -173 -305 -322 -52 -211 66 -434 269 -511
48 -18 81 -23 156 -23 115 0 188 24 271 89 255 200 207 597 -89 742 -50 24
-70 28 -167 31 -60 1 -121 -1 -135 -6z m225 -185 c100 -46 155 -133 155 -243
0 -163 -152 -286 -312 -252 -160 35 -247 192 -193 350 32 94 141 169 245 169
37 0 72 -8 105 -24z"/>
</g>
</svg>
