<?xml version="1.0" standalone="no"?>
<!DOCTYPE svg PUBLIC "-//W3C//DTD SVG 20010904//EN"
 "http://www.w3.org/TR/2001/REC-SVG-20010904/DTD/svg10.dtd">
<svg version="1.0" xmlns="http://www.w3.org/2000/svg"
 width="512.000000pt" height="512.000000pt" viewBox="0 0 512.000000 512.000000"
 preserveAspectRatio="xMidYMid meet">
<metadata>
Created by potrace 1.10, written by Peter Selinger 2001-2011
</metadata>
<g transform="translate(0.000000,512.000000) scale(0.100000,-0.100000)"
fill="#000000" stroke="none">
<path d="M278 4431 c-72 -23 -113 -49 -164 -103 -55 -57 -80 -102 -99 -173
-13 -52 -15 -214 -15 -1285 0 -1323 -1 -1290 52 -1379 30 -51 96 -118 143
-146 101 -59 -29 -55 2075 -53 l1925 3 57 23 c67 27 155 103 192 166 58 99 56
51 56 1386 0 1335 2 1287 -56 1386 -37 63 -125 139 -192 166 l-57 23 -1930 2
c-1841 2 -1933 1 -1987 -16z m3762 -245 c0 -7 -1516 -1515 -1553 -1545 -128
-100 -346 -100 -474 0 -37 30 -1553 1538 -1553 1545 0 2 806 4 1790 4 985 0
1790 -2 1790 -4z m-3200 -756 l565 -559 -380 -378 c-209 -208 -467 -464 -572
-568 l-193 -188 0 1126 c0 620 3 1127 8 1127 4 0 261 -252 572 -560z m3400
-567 l0 -1126 -192 188 c-106 104 -364 360 -573 568 l-380 378 565 559 c311
308 568 560 573 560 4 0 7 -507 7 -1127z m-2516 -310 c205 -201 306 -248 526
-248 220 0 320 47 528 250 l133 129 532 -531 c293 -291 547 -543 565 -558 17
-16 32 -32 32 -37 0 -4 -805 -8 -1790 -8 -984 0 -1790 2 -1790 4 0 5 1124
1126 1129 1126 3 0 63 -57 135 -127z"/>
</g>
</svg>
