<?xml version="1.0" standalone="no"?>
<!DOCTYPE svg PUBLIC "-//W3C//DTD SVG 20010904//EN"
 "http://www.w3.org/TR/2001/REC-SVG-20010904/DTD/svg10.dtd">
<svg version="1.0" xmlns="http://www.w3.org/2000/svg"
 width="300.000000pt" height="300.000000pt" viewBox="0 0 300.000000 300.000000"
 preserveAspectRatio="xMidYMid meet">
<metadata>
Created by potrace 1.10, written by Peter Selinger 2001-2011
</metadata>
<g transform="translate(0.000000,300.000000) scale(0.100000,-0.100000)"
fill="#000000" stroke="none">
<path d="M1365 2964 c-250 -27 -498 -117 -706 -255 -127 -85 -315 -273 -398
-399 -117 -178 -196 -372 -238 -585 -26 -135 -24 -406 5 -545 32 -154 69 -260
137 -395 68 -133 124 -217 213 -318 157 -178 345 -311 570 -402 77 -32 97 -36
124 -29 50 15 58 42 58 193 l0 133 -37 -7 c-68 -13 -202 -7 -256 11 -61 20
-124 61 -161 104 -14 17 -46 73 -70 123 -46 94 -77 133 -159 200 -54 43 -59
63 -20 78 67 25 186 -37 254 -133 104 -145 148 -173 274 -173 44 0 101 6 126
13 45 14 47 15 63 74 9 33 30 80 46 103 l29 42 -77 13 c-299 48 -485 195 -561
443 -25 82 -44 270 -36 347 13 114 56 225 117 303 l30 38 -12 65 c-16 82 -8
220 16 292 16 48 19 52 48 52 71 0 203 -51 325 -124 l56 -34 90 21 c130 29
440 29 570 0 l90 -21 57 35 c95 57 200 101 272 114 64 12 69 12 82 -6 37 -50
55 -221 34 -329 l-12 -65 30 -38 c61 -78 104 -189 117 -303 3 -30 1 -105 -5
-167 -18 -197 -71 -324 -180 -433 -100 -101 -233 -161 -418 -190 l-72 -12 20
-28 c12 -16 31 -51 43 -77 21 -45 22 -66 27 -336 5 -289 5 -289 29 -308 34
-27 57 -24 174 25 215 90 395 219 549 394 89 100 145 184 213 317 68 135 105
241 137 395 29 139 31 410 5 545 -63 322 -196 575 -422 800 -224 225 -483 362
-795 420 -85 16 -319 27 -395 19z"/>
</g>
</svg>
