<?xml version="1.0" standalone="no"?>
<!DOCTYPE svg PUBLIC "-//W3C//DTD SVG 20010904//EN"
 "http://www.w3.org/TR/2001/REC-SVG-20010904/DTD/svg10.dtd">
<svg version="1.0" xmlns="http://www.w3.org/2000/svg"
 width="300.000000pt" height="300.000000pt" viewBox="0 0 300.000000 300.000000"
 preserveAspectRatio="xMidYMid meet">
<metadata>
Created by potrace 1.10, written by Peter Selinger 2001-2011
</metadata>
<g transform="translate(0.000000,300.000000) scale(0.100000,-0.100000)"
fill="#000000" stroke="none">
<path d="M261 2844 c-58 -29 -104 -84 -122 -143 -7 -24 -9 -423 -7 -1222 l3
-1186 30 -49 c19 -30 49 -60 79 -79 l49 -30 1207 0 1207 0 49 30 c30 19 60 49
79 79 l30 49 0 1207 0 1207 -30 49 c-19 30 -49 60 -79 79 l-49 30 -1197 3
-1196 2 -53 -26z m584 -363 c60 -27 101 -66 129 -123 105 -209 -123 -437 -332
-332 -151 75 -188 260 -78 391 63 75 193 105 281 64z m129 -622 l26 -20 0
-650 c0 -636 0 -649 -20 -669 -19 -19 -33 -20 -230 -20 -197 0 -211 1 -230 20
-20 20 -20 33 -20 669 l0 650 26 20 c25 20 40 21 224 21 184 0 199 -1 224 -21z
m616 8 c15 -7 29 -27 35 -48 l10 -37 35 25 c94 64 292 87 425 49 188 -55 309
-177 376 -381 23 -68 23 -82 27 -502 3 -425 3 -432 -17 -452 -20 -20 -32 -21
-229 -21 -164 0 -212 3 -228 14 -18 14 -19 33 -24 423 l-5 409 -26 49 c-57
111 -181 138 -269 59 -68 -62 -70 -77 -70 -514 0 -377 -1 -388 -21 -414 l-20
-26 -214 0 -214 0 -20 26 c-21 26 -21 34 -21 666 l0 639 25 24 c24 25 25 25
222 25 138 0 205 -4 223 -13z"/>
</g>
</svg>
