<?xml version="1.0" standalone="no"?>
<!DOCTYPE svg PUBLIC "-//W3C//DTD SVG 20010904//EN"
 "http://www.w3.org/TR/2001/REC-SVG-20010904/DTD/svg10.dtd">
<svg version="1.0" xmlns="http://www.w3.org/2000/svg"
 width="300.000000pt" height="300.000000pt" viewBox="0 0 300.000000 300.000000"
 preserveAspectRatio="xMidYMid meet">
<metadata>
Created by potrace 1.10, written by Peter Selinger 2001-2011
</metadata>
<g transform="translate(0.000000,300.000000) scale(0.100000,-0.100000)"
fill="#000000" stroke="none">
<path d="M507 2980 c-67 -26 -133 -80 -267 -217 -202 -206 -225 -255 -225
-473 0 -126 4 -159 28 -251 153 -590 665 -1259 1267 -1655 431 -283 867 -428
1114 -370 123 29 176 65 346 239 183 187 211 229 218 332 4 63 1 80 -22 132
-24 51 -61 93 -264 295 -148 147 -254 245 -282 259 -35 18 -61 23 -115 23
-109 0 -146 -22 -308 -182 l-138 -137 -75 40 c-275 146 -678 557 -788 803
l-19 42 140 143 c120 123 143 151 163 202 27 74 24 158 -10 225 -14 30 -105
128 -264 286 -219 219 -246 243 -299 263 -70 26 -136 26 -200 1z m184 -165
c20 -15 127 -118 237 -229 282 -286 281 -280 64 -496 -160 -158 -172 -173
-172 -220 0 -111 236 -452 462 -666 218 -206 490 -384 589 -384 40 0 47 5 198
154 238 234 224 235 510 -48 112 -110 216 -221 232 -245 38 -59 38 -103 0
-162 -47 -73 -300 -315 -354 -339 -215 -95 -699 67 -1142 382 -479 341 -891
858 -1070 1343 -66 178 -78 237 -79 380 -1 118 1 134 23 180 32 64 299 339
356 367 50 23 95 18 146 -17z"/>
</g>
</svg>
