<?xml version="1.0" standalone="no"?>
<!DOCTYPE svg PUBLIC "-//W3C//DTD SVG 20010904//EN"
 "http://www.w3.org/TR/2001/REC-SVG-20010904/DTD/svg10.dtd">
<svg version="1.0" xmlns="http://www.w3.org/2000/svg"
 width="300.000000pt" height="300.000000pt" viewBox="0 0 300.000000 300.000000"
 preserveAspectRatio="xMidYMid meet">
<metadata>
Created by potrace 1.10, written by Peter Selinger 2001-2011
</metadata>
<g transform="translate(0.000000,300.000000) scale(0.100000,-0.100000)"
fill="#000000" stroke="none">
<path d="M1995 2714 c-239 -37 -444 -216 -508 -444 -21 -75 -30 -184 -19 -248
5 -29 6 -54 3 -56 -12 -7 -228 22 -311 42 -330 79 -619 247 -859 498 -50 52
-92 94 -94 94 -8 0 -47 -98 -62 -156 -19 -75 -19 -223 0 -298 32 -123 113
-252 200 -317 24 -19 45 -37 45 -41 0 -15 -149 18 -219 48 l-53 24 7 -68 c17
-165 101 -317 236 -425 47 -38 185 -107 213 -107 9 0 16 -4 16 -9 0 -14 -98
-24 -180 -19 -38 2 -70 0 -70 -5 0 -13 50 -109 80 -152 38 -56 120 -133 182
-172 52 -33 173 -75 258 -90 l45 -8 -72 -48 c-204 -136 -444 -207 -697 -207
l-121 0 58 -35 c279 -169 678 -257 1019 -226 384 35 695 159 968 386 383 319
630 841 630 1329 l0 106 48 37 c26 21 65 54 86 73 43 39 168 192 162 198 -2 2
-37 -8 -77 -23 -75 -27 -193 -55 -231 -55 -17 0 -14 5 18 28 64 47 143 140
180 213 19 38 34 73 34 79 0 6 -19 0 -42 -14 -59 -34 -183 -82 -271 -105 l-72
-18 -51 46 c-58 53 -154 105 -234 126 -59 16 -196 26 -245 19z"/>
</g>
</svg>
